<?xml version="1.0" standalone="no"?>
<!DOCTYPE svg PUBLIC "-//W3C//DTD SVG 20010904//EN"
 "http://www.w3.org/TR/2001/REC-SVG-20010904/DTD/svg10.dtd">
<svg version="1.0" xmlns="http://www.w3.org/2000/svg"
 width="1024.000000pt" height="1024.000000pt" viewBox="0 0 1024.000000 1024.000000"
 preserveAspectRatio="xMidYMid meet">
<metadata>
Created by potrace 1.14, written by Peter Selinger 2001-2017
</metadata>
<g transform="translate(0.000000,1024.000000) scale(0.100000,-0.100000)"
fill="#000000" stroke="none">
<path d="M4738 10235 c-2 -2 -34 -6 -73 -9 -111 -9 -163 -15 -275 -32 -166
-24 -208 -31 -265 -44 -22 -5 -53 -11 -70 -14 -28 -5 -184 -42 -280 -66 -22
-6 -47 -13 -55 -17 -8 -3 -23 -8 -34 -10 -28 -5 -267 -83 -301 -98 -16 -8 -50
-20 -75 -29 -75 -24 -323 -132 -448 -195 -64 -33 -133 -67 -152 -77 -19 -9
-47 -26 -62 -36 -16 -11 -28 -16 -28 -12 0 4 -8 0 -17 -8 -10 -8 -45 -30 -78
-48 -33 -19 -71 -41 -85 -50 -14 -9 -79 -52 -145 -95 -66 -44 -122 -82 -125
-85 -3 -3 -27 -21 -55 -39 -27 -19 -52 -38 -55 -41 -3 -4 -12 -11 -21 -16 -9
-5 -33 -22 -54 -39 -108 -85 -203 -163 -231 -190 -18 -16 -60 -55 -94 -85
-128 -113 -349 -343 -465 -484 -22 -27 -45 -54 -50 -60 -6 -6 -24 -29 -40 -51
-17 -22 -35 -44 -41 -50 -6 -5 -25 -31 -43 -57 -17 -25 -37 -52 -43 -60 -7 -7
-27 -33 -43 -57 -17 -24 -37 -54 -45 -66 -45 -66 -109 -165 -130 -200 -13 -22
-28 -41 -32 -43 -4 -2 -8 -7 -8 -11 0 -5 -23 -48 -52 -97 -66 -115 -228 -435
-228 -451 0 -7 -5 -13 -11 -13 -5 0 -8 -4 -5 -8 3 -5 -8 -35 -23 -68 -16 -32
-47 -111 -71 -174 -23 -63 -47 -121 -53 -127 -5 -7 -7 -13 -3 -13 3 0 -3 -24
-14 -52 -17 -48 -77 -242 -85 -278 -2 -8 -4 -15 -5 -15 -1 0 -3 -8 -5 -17 -2
-9 -11 -48 -20 -85 -10 -37 -19 -79 -22 -93 -2 -14 -9 -43 -15 -65 -6 -22 -11
-47 -12 -55 -1 -8 -6 -31 -10 -50 -4 -19 -9 -48 -11 -65 -2 -16 -4 -30 -5 -30
-4 0 -20 -103 -25 -160 -2 -22 -5 -40 -5 -40 -3 0 -10 -41 -14 -85 -3 -25 -9
-79 -13 -120 -11 -100 -10 -883 1 -985 11 -98 14 -120 16 -120 1 0 3 -16 5
-35 2 -19 6 -48 8 -65 3 -16 9 -52 13 -80 4 -27 8 -55 10 -62 1 -6 5 -29 8
-50 3 -21 13 -69 21 -108 9 -38 18 -79 20 -90 10 -53 18 -87 41 -175 15 -52
27 -102 29 -110 2 -8 10 -34 19 -58 8 -23 15 -44 16 -47 0 -3 0 -6 1 -7 0 -2
2 -10 4 -19 3 -18 42 -133 56 -164 4 -11 15 -42 24 -70 9 -27 22 -63 30 -80 7
-16 20 -48 28 -70 9 -22 22 -56 30 -75 8 -19 16 -38 16 -42 1 -5 10 -24 21
-43 11 -20 20 -42 20 -50 0 -8 5 -15 10 -15 6 0 10 -5 10 -11 0 -16 122 -263
132 -267 4 -2 8 -12 8 -23 0 -10 3 -19 8 -19 4 0 12 -10 18 -23 23 -49 59
-112 67 -115 4 -2 7 -10 7 -18 0 -8 3 -14 8 -14 4 0 16 -18 26 -40 11 -22 23
-40 28 -40 4 0 7 -3 6 -7 -3 -9 112 -186 124 -191 4 -2 8 -8 8 -13 0 -6 5 -15
10 -22 18 -21 135 -178 145 -195 6 -9 17 -24 26 -32 8 -8 22 -24 30 -36 21
-32 180 -218 210 -247 11 -10 19 -22 19 -28 0 -6 5 -7 10 -4 6 3 10 2 10 -3 0
-9 234 -252 243 -252 1 0 27 -23 57 -52 85 -79 263 -226 385 -316 61 -45 115
-86 122 -92 33 -27 263 -174 333 -213 19 -11 37 -22 40 -26 5 -6 41 -26 190
-102 52 -27 100 -53 107 -59 7 -5 15 -10 19 -10 4 0 39 -15 78 -34 39 -18 88
-41 109 -50 20 -9 54 -24 75 -33 20 -10 39 -18 42 -18 4 -1 170 -64 235 -90
11 -5 22 -9 25 -10 3 -1 28 -9 55 -17 83 -27 219 -69 238 -74 9 -2 25 -6 35
-9 9 -2 58 -14 107 -26 50 -12 96 -23 103 -25 15 -4 9 -3 79 -19 32 -7 74 -16
93 -19 19 -3 46 -8 60 -11 42 -9 213 -36 250 -40 19 -2 51 -7 70 -10 101 -16
212 -20 600 -20 379 0 517 5 600 20 14 3 44 7 65 9 34 3 172 25 267 41 24 5
238 51 281 61 9 2 25 6 35 8 9 3 44 12 77 21 33 9 67 18 75 20 8 2 16 4 18 5
2 3 2 3 52 14 19 5 41 13 48 18 6 6 12 8 12 5 0 -7 233 73 370 128 128 51 359
155 390 175 14 10 42 23 63 31 20 7 37 17 37 21 0 4 7 8 15 8 23 0 29 25 11
47 -9 10 -43 54 -76 98 -33 44 -70 93 -82 109 -37 47 -331 443 -348 467 -8 12
-20 27 -25 33 -6 6 -22 27 -35 46 -26 37 -29 42 -60 79 -11 13 -20 27 -20 30
0 4 -12 20 -27 37 -16 17 -44 53 -62 80 -19 27 -40 52 -45 56 -7 5 -7 8 -1 8
6 0 6 3 -1 8 -5 4 -45 54 -88 112 -42 58 -86 116 -96 130 -10 14 -54 72 -96
130 -43 58 -81 107 -86 108 -4 2 -8 8 -8 13 0 8 -17 32 -88 124 -4 6 -48 64
-96 130 -49 66 -93 122 -98 123 -4 2 -8 10 -8 18 0 8 -4 14 -10 14 -5 0 -10 7
-10 15 0 8 -3 15 -7 15 -5 0 -19 17 -33 38 -14 20 -46 64 -71 97 -25 33 -75
103 -110 155 -35 52 -67 97 -71 98 -5 2 -8 10 -8 18 0 8 -7 17 -15 20 -8 4
-15 14 -15 24 0 10 -4 20 -8 22 -7 3 -79 103 -107 150 -5 9 -25 37 -42 63 -18
25 -33 50 -33 55 0 4 -4 10 -8 12 -5 1 -69 93 -142 203 -74 110 -137 202 -142
203 -4 2 -8 10 -8 18 0 8 -4 14 -10 14 -5 0 -10 5 -10 11 0 6 -8 21 -17 34
-20 25 -28 37 -76 110 -61 91 -87 130 -94 140 -5 6 -69 100 -142 210 -74 110
-137 202 -140 205 -3 3 -12 17 -20 32 -8 15 -22 37 -33 47 -10 11 -18 23 -18
26 0 8 -44 69 -52 73 -5 2 -8 10 -8 18 0 8 -4 14 -10 14 -5 0 -10 6 -10 13 0
7 -9 23 -20 35 -11 11 -28 34 -37 51 -10 16 -37 56 -60 90 -24 33 -43 65 -43
70 0 5 -4 11 -8 13 -5 2 -51 66 -103 143 -52 77 -100 146 -106 153 -7 7 -13
17 -13 22 0 5 -6 15 -12 22 -7 7 -42 56 -77 108 -36 52 -68 97 -73 98 -4 2 -8
8 -8 14 0 11 -55 93 -82 122 -10 11 -18 25 -18 32 0 7 -4 14 -8 16 -5 2 -30
34 -55 73 -26 38 -48 68 -48 65 -4 -14 -8 -612 -13 -1710 -3 -674 -8 -1245
-12 -1270 -8 -56 -43 -104 -96 -131 -37 -19 -60 -21 -212 -23 l-170 -1 -45 29
c-35 24 -98 101 -82 101 3 0 -1 10 -8 23 -8 15 -8 22 -1 22 6 0 8 5 4 12 -11
17 -11 79 -1 101 4 9 4 17 0 17 -10 0 -9 151 1 168 4 7 4 12 -1 12 -4 0 -8 14
-8 30 0 17 2 30 5 30 7 0 4 189 -3 196 -3 3 -2 16 3 28 4 13 4 29 0 36 -5 8
-5 21 0 30 5 9 5 22 0 30 -5 8 -5 21 0 30 5 9 5 22 0 30 -5 8 -5 21 0 30 5 9
5 22 0 30 -5 8 -5 21 0 31 5 9 6 19 3 23 -8 8 -7 102 2 116 3 5 2 10 -3 10 -6
0 -7 14 -2 35 4 19 5 35 1 35 -3 0 -6 18 -6 40 0 22 3 40 7 40 4 0 3 13 -2 30
-5 17 -5 32 0 35 5 3 5 16 1 28 -5 12 -5 34 0 49 4 16 4 28 -1 28 -4 0 -4 16
0 35 4 19 5 35 1 35 -3 0 -6 18 -6 40 0 22 3 40 7 40 4 0 3 13 -2 29 -4 16 -6
32 -3 35 8 7 7 101 0 113 -3 5 -2 15 3 23 5 8 5 21 0 30 -5 9 -5 22 0 29 4 8
4 27 0 42 -5 16 -5 29 0 29 5 0 5 13 0 30 -5 17 -5 30 0 30 5 0 5 13 0 30 -5
17 -5 30 0 30 5 0 5 13 0 30 -5 17 -5 30 0 30 5 0 5 13 0 30 -5 17 -5 30 0 30
5 0 5 13 0 30 -5 17 -5 30 0 30 5 0 5 13 0 30 -5 17 -5 30 0 30 5 0 5 13 0 30
-5 17 -5 30 0 30 5 0 5 13 0 30 -5 17 -5 30 0 30 5 0 5 13 0 30 -5 17 -5 30 0
30 5 0 5 13 0 29 -4 16 -6 32 -3 35 3 3 6 362 7 799 1 846 -2 797 46 848 21
22 80 62 80 53 0 -3 6 -2 13 4 15 12 344 14 389 1 18 -5 36 -8 39 -6 3 1 13
-5 22 -15 9 -9 20 -18 24 -20 5 -1 51 -68 103 -148 52 -80 97 -147 100 -150 3
-3 63 -93 135 -200 71 -107 134 -198 140 -202 5 -4 6 -8 2 -8 -4 0 1 -9 11
-20 10 -11 25 -33 33 -48 8 -15 16 -29 19 -32 6 -6 60 -85 75 -109 14 -24 52
-82 66 -102 6 -8 46 -69 89 -135 43 -65 85 -126 93 -136 8 -9 18 -25 22 -37 3
-12 11 -21 16 -21 5 0 9 -7 9 -15 0 -8 5 -15 10 -15 6 0 10 -4 10 -9 0 -5 33
-58 72 -118 40 -59 77 -115 83 -124 5 -9 23 -36 39 -60 180 -272 237 -359 257
-396 7 -13 16 -23 21 -23 4 0 8 -4 8 -9 0 -5 31 -56 69 -113 208 -312 331
-500 331 -508 0 -4 4 -10 8 -12 5 -1 29 -34 53 -73 24 -38 49 -76 57 -84 7 -7
22 -31 33 -52 10 -21 24 -39 29 -39 6 0 10 -5 10 -11 0 -6 21 -43 48 -81 44
-66 56 -85 107 -166 10 -18 23 -32 27 -32 4 0 8 -4 8 -10 0 -5 77 -126 170
-267 94 -142 176 -266 183 -277 7 -10 24 -36 40 -57 15 -21 27 -43 27 -49 0
-5 5 -10 10 -10 6 0 10 -7 10 -15 0 -8 3 -15 8 -15 4 0 23 -27 42 -60 19 -33
38 -60 43 -60 4 0 7 -4 7 -10 0 -11 80 -132 95 -142 7 -5 7 -8 0 -8 -6 0 -6
-3 0 -8 6 -4 62 -86 125 -182 63 -96 118 -176 123 -178 4 -2 7 -7 7 -12 0 -4
25 -44 55 -89 30 -45 55 -85 55 -90 0 -5 4 -11 8 -13 4 -1 31 -39 60 -83 29
-44 57 -87 62 -95 49 -72 240 -363 240 -366 0 -2 6 -12 14 -21 29 -36 296
-444 296 -452 0 -5 4 -11 9 -13 4 -1 43 -57 86 -123 44 -66 82 -122 85 -125 4
-3 9 -13 13 -22 7 -20 37 -25 37 -6 0 6 3 9 6 5 5 -5 27 10 59 41 8 6 18 12
23 12 5 0 21 11 36 25 15 14 29 25 32 25 4 0 146 103 171 125 7 5 24 19 38 30
28 21 36 28 111 90 47 39 100 85 178 155 201 180 523 537 668 741 10 13 45 61
78 107 33 45 60 85 60 88 0 5 41 65 51 74 11 11 179 298 179 308 0 6 3 12 8
14 21 9 190 368 276 585 47 120 120 328 131 373 2 8 13 47 25 85 11 39 22 79
25 90 2 11 11 45 19 75 8 30 17 66 20 80 3 14 12 55 20 91 8 36 17 79 20 95 3
16 7 40 10 54 5 28 36 209 42 255 3 17 7 50 9 75 2 25 4 45 5 45 15 0 21 887
6 1040 -13 142 -25 228 -52 378 -3 17 -7 41 -9 52 -6 42 -18 102 -30 155 -8
30 -16 66 -19 80 -11 58 -55 227 -88 335 -12 39 -23 75 -24 80 -2 9 -49 141
-103 287 -43 117 -222 509 -241 528 -3 3 -16 28 -30 55 -14 28 -46 85 -72 128
-27 43 -48 81 -48 84 0 9 -228 347 -249 370 -12 12 -21 25 -21 29 0 4 -17 28
-37 53 -21 25 -41 51 -45 56 -16 20 -113 140 -123 151 -5 6 -32 37 -60 69
-182 211 -426 445 -645 619 -47 37 -92 73 -100 79 -8 7 -55 41 -105 76 -49 36
-107 77 -127 93 -20 15 -40 28 -44 28 -4 0 -29 16 -55 35 -27 19 -52 35 -56
35 -3 0 -14 6 -22 14 -14 13 -39 28 -121 73 -14 8 -47 28 -75 44 -58 34 -445
229 -445 224 0 -2 -30 10 -67 26 -90 41 -95 43 -188 77 -44 16 -89 33 -100 37
-11 4 -26 9 -33 11 -8 1 -21 6 -30 10 -9 4 -26 9 -36 11 -11 2 -25 8 -33 14
-7 6 -20 9 -28 5 -8 -3 -15 -1 -15 4 0 6 -3 9 -7 8 -5 -1 -39 7 -78 19 -65 20
-363 94 -430 107 -16 3 -42 8 -57 11 -16 3 -40 7 -55 10 -48 10 -137 24 -173
29 -19 3 -55 8 -80 11 -25 3 -61 8 -80 12 -19 3 -66 7 -105 9 -96 5 -843 13
-847 9z m2017 -3078 c11 -2 28 0 38 5 9 5 17 5 17 1 0 -5 11 -10 26 -11 47 -4
92 -37 127 -92 l22 -35 2 -1812 c1 -1131 -2 -1813 -8 -1813 -5 0 -9 7 -9 15 0
8 -3 15 -8 15 -4 0 -23 26 -42 58 -19 31 -38 62 -42 67 -15 18 -148 225 -148
231 0 3 -8 14 -18 25 -11 10 -25 32 -33 47 -8 15 -20 33 -26 40 -7 7 -13 17
-13 22 0 5 -6 15 -13 22 -7 7 -28 38 -47 68 -19 30 -38 57 -42 58 -5 2 -8 10
-8 18 0 8 -4 14 -10 14 -5 0 -10 4 -10 10 0 5 -36 64 -79 129 l-79 119 2 1324
c2 1206 3 1326 18 1358 39 82 88 112 186 116 41 2 76 5 78 6 3 4 95 0 119 -5z"/>
<path d="M7839 780 c-13 -10 -19 -19 -13 -20 6 0 19 9 29 20 23 26 14 26 -16
0z"/>
<path d="M7729 713 c-13 -16 -12 -17 4 -4 16 13 21 21 13 21 -2 0 -10 -8 -17
-17z"/>
<path d="M7600 640 c-8 -5 -10 -10 -5 -10 6 0 17 5 25 10 8 5 11 10 5 10 -5 0
-17 -5 -25 -10z"/>
</g>
</svg>
