<svg xmlns="http://www.w3.org/2000/svg" xmlns:xlink="http://www.w3.org/1999/xlink" width="0" height="0" style="display:none;"><symbol viewBox="0 0 24 24" id="ico-angle-down-small">

  <path id="angle-down-small" fill="#000000" d="M12,14.75a.744.744,0,0,1-.53-.22l-4-4A.75.75,0,0,1,8.53,9.47L12,12.939,15.47,9.47a.75.75,0,0,1,1.06,1.06l-4,4A.744.744,0,0,1,12,14.75Z"></path>
</symbol><symbol viewBox="0 0 24 24" id="ico-angle-down">

  <path id="angle-down" fill="#000000" d="M12,16.75a.744.744,0,0,1-.53-.22l-7-7A.75.75,0,0,1,5.53,8.47L12,14.939,18.47,8.47a.75.75,0,0,1,1.06,1.06l-7,7A.744.744,0,0,1,12,16.75Z"></path>
</symbol><symbol viewBox="0 0 24 24" id="ico-angle-left-small">

  <path id="angle-left-small" fill="#000000" d="M14,16.75a.744.744,0,0,1-.53-.22l-4-4a.749.749,0,0,1,0-1.06l4-4a.75.75,0,0,1,1.06,1.06L11.061,12l3.469,3.47A.75.75,0,0,1,14,16.75Z"></path>
</symbol><symbol viewBox="0 0 24 24" id="ico-angle-left">

  <path id="angle-left" fill="#000000" d="M15,19.75a.744.744,0,0,1-.53-.22l-7-7a.749.749,0,0,1,0-1.06l7-7a.75.75,0,0,1,1.06,1.06L9.061,12l6.469,6.47A.75.75,0,0,1,15,19.75Z"></path>
</symbol><symbol viewBox="0 0 24 24" id="ico-angle-right-small">

  <path id="angle-right-small" fill="#000000" d="M10,16.75a.75.75,0,0,1-.53-1.28L12.939,12,9.47,8.53a.75.75,0,0,1,1.06-1.06l4,4a.749.749,0,0,1,0,1.06l-4,4A.744.744,0,0,1,10,16.75Z"></path>
</symbol><symbol viewBox="0 0 24 24" id="ico-angle-right">

  <path id="angle-right" fill="#000000" d="M9,19.75a.75.75,0,0,1-.53-1.28L14.939,12,8.47,5.53A.75.75,0,0,1,9.53,4.47l7,7a.749.749,0,0,1,0,1.06l-7,7A.744.744,0,0,1,9,19.75Z"></path>
</symbol><symbol viewBox="0 0 24 24" id="ico-angle-up-small">

  <path id="angle-up-small" fill="#000000" d="M16,14.75a.744.744,0,0,1-.53-.22L12,11.061,8.53,14.53a.75.75,0,0,1-1.06-1.06l4-4a.749.749,0,0,1,1.06,0l4,4A.75.75,0,0,1,16,14.75Z"></path>
</symbol><symbol viewBox="0 0 24 24" id="ico-angle-up">

  <path id="angle-up" fill="#000000" d="M19,15.75a.744.744,0,0,1-.53-.22L12,9.061,5.53,15.53a.75.75,0,0,1-1.06-1.06l7-7a.749.749,0,0,1,1.06,0l7,7A.75.75,0,0,1,19,15.75Z"></path>
</symbol><symbol viewBox="0 0 24 24" id="ico-angles-down-small">

  <path id="angles-down-small" fill="#000000" d="M16.53,12.47a.749.749,0,0,1,0,1.06l-4,4a.748.748,0,0,1-1.06,0l-4-4a.75.75,0,0,1,1.06-1.06L12,15.939l3.47-3.469A.749.749,0,0,1,16.53,12.47Zm-5.06-.94a.748.748,0,0,0,1.06,0l4-4a.75.75,0,0,0-1.06-1.06L12,9.939,8.53,6.47A.75.75,0,0,0,7.47,7.53Z"></path>
</symbol><symbol viewBox="0 0 24 24" id="ico-angles-down">

  <path id="angles-down" fill="#000000" d="M19.53,11.47a.749.749,0,0,1,0,1.06l-7,7a.748.748,0,0,1-1.06,0l-7-7a.75.75,0,0,1,1.06-1.06L12,17.939l6.47-6.469A.749.749,0,0,1,19.53,11.47Zm-8.06,1.06a.748.748,0,0,0,1.06,0l7-7a.75.75,0,0,0-1.06-1.06L12,10.939,5.53,4.47A.75.75,0,0,0,4.47,5.53Z"></path>
</symbol><symbol viewBox="0 0 24 24" id="ico-angles-left-small">

  <path id="angles-left-small" fill="#000000" d="M11.53,8.53,8.061,12l3.469,3.47a.75.75,0,1,1-1.06,1.06l-4-4a.749.749,0,0,1,0-1.06l4-4a.75.75,0,0,1,1.06,1.06ZM14.061,12,17.53,8.53a.75.75,0,0,0-1.06-1.06l-4,4a.749.749,0,0,0,0,1.06l4,4a.75.75,0,0,0,1.06-1.06Z"></path>
</symbol><symbol viewBox="0 0 24 24" id="ico-angles-left">

  <path id="angles-left" fill="#000000" d="M12,19.75a.744.744,0,0,1-.53-.22l-7-7a.749.749,0,0,1,0-1.06l7-7a.75.75,0,0,1,1.06,1.06L6.061,12l6.469,6.47A.75.75,0,0,1,12,19.75Zm7.53-.22a.749.749,0,0,0,0-1.06L13.061,12,19.53,5.53a.75.75,0,0,0-1.06-1.06l-7,7a.749.749,0,0,0,0,1.06l7,7a.748.748,0,0,0,1.06,0Z"></path>
</symbol><symbol viewBox="0 0 24 24" id="ico-angles-right-small">

  <path id="angles-right-small" fill="#000000" d="M17.53,12.53l-4,4a.75.75,0,0,1-1.06-1.06L15.939,12,12.47,8.53a.75.75,0,0,1,1.06-1.06l4,4A.749.749,0,0,1,17.53,12.53Zm-10-5.06A.75.75,0,0,0,6.47,8.53L9.939,12,6.47,15.47a.75.75,0,1,0,1.06,1.06l4-4a.749.749,0,0,0,0-1.06Z"></path>
</symbol><symbol viewBox="0 0 24 24" id="ico-angles-right">

  <path id="angles-right" fill="#000000" d="M19.53,12.53l-7,7a.75.75,0,0,1-1.06-1.06L17.939,12,11.47,5.53a.75.75,0,0,1,1.06-1.06l7,7A.749.749,0,0,1,19.53,12.53Zm-7-1.06-7-7A.75.75,0,0,0,4.47,5.53L10.939,12,4.47,18.47a.75.75,0,1,0,1.06,1.06l7-7A.749.749,0,0,0,12.53,11.47Z"></path>
</symbol><symbol viewBox="0 0 24 24" id="ico-angles-up-small">

  <path id="angles-up-small" fill="#000000" d="M7.47,11.53a.749.749,0,0,1,0-1.06l4-4a.749.749,0,0,1,1.06,0l4,4a.75.75,0,1,1-1.06,1.06L12,8.061,8.53,11.53A.749.749,0,0,1,7.47,11.53Zm5.06.94a.749.749,0,0,0-1.06,0l-4,4a.75.75,0,0,0,1.06,1.06L12,14.061l3.47,3.469a.75.75,0,0,0,1.06-1.06Z"></path>
</symbol><symbol viewBox="0 0 24 24" id="ico-angles-up">

  <path id="angles-up" fill="#000000" d="M4.47,12.53a.749.749,0,0,1,0-1.06l7-7a.749.749,0,0,1,1.06,0l7,7a.75.75,0,1,1-1.06,1.06L12,6.061,5.53,12.53A.749.749,0,0,1,4.47,12.53Zm8.06-1.06a.749.749,0,0,0-1.06,0l-7,7a.75.75,0,0,0,1.06,1.06L12,13.061l6.47,6.469a.75.75,0,0,0,1.06-1.06Z"></path>
</symbol><symbol viewBox="0 0 24 24" id="ico-calendar">

  <path id="calendar" fill="#000000" d="M18,3.75H16.75V3a.75.75,0,0,0-1.5,0v.75H8.75V3a.75.75,0,0,0-1.5,0v.75H6A3.383,3.383,0,0,0,2.25,7.5V18A3.383,3.383,0,0,0,6,21.75H18A3.383,3.383,0,0,0,21.75,18V7.5A3.383,3.383,0,0,0,18,3.75ZM6,5.25H7.25V6a.75.75,0,0,0,1.5,0V5.25h6.5V6a.75.75,0,0,0,1.5,0V5.25H18c1.577,0,2.25.673,2.25,2.25v.75H3.75V7.5C3.75,5.923,4.423,5.25,6,5.25Zm12,15H6c-1.577,0-2.25-.673-2.25-2.25V9.75h16.5V18C20.25,19.577,19.577,20.25,18,20.25ZM9.02,13a1,1,0,1,1-1.01-1h.01A1,1,0,0,1,9.02,13Zm4,0a1,1,0,1,1-1.01-1h.01A1,1,0,0,1,13.02,13Zm4,0a1,1,0,1,1-1.01-1h.01A1,1,0,0,1,17.02,13Zm-8,4a1,1,0,1,1-1.01-1h.01A1,1,0,0,1,9.02,17Zm4,0a1,1,0,1,1-1.01-1h.01A1,1,0,0,1,13.02,17Zm4,0a1,1,0,1,1-1.01-1h.01A1,1,0,0,1,17.02,17Z"></path>
</symbol><symbol viewBox="0 0 24 24" id="ico-envelope-open">

  <path id="envelope-open" fill="#000000" d="M18,21.75H6A3.383,3.383,0,0,1,2.25,18V9.732A3.246,3.246,0,0,1,3.7,7.028L9.92,2.88a3.741,3.741,0,0,1,4.16,0L20.3,7.028a3.246,3.246,0,0,1,1.447,2.7V18A3.383,3.383,0,0,1,18,21.75Zm-6-18a2.243,2.243,0,0,0-1.248.379L4.529,8.276A1.747,1.747,0,0,0,3.75,9.732V18c0,1.577.673,2.25,2.25,2.25H18c1.577,0,2.25-.673,2.25-2.25V9.732a1.747,1.747,0,0,0-.779-1.456L13.248,4.128A2.243,2.243,0,0,0,12,3.749Zm.857,11.191,4.584-3.334a.749.749,0,0,0-.882-1.212l-4.583,3.333a.185.185,0,0,1-.217,0L7.175,10.394a.75.75,0,1,0-.883,1.212l4.584,3.334a1.68,1.68,0,0,0,1.981,0Z"></path>
</symbol><symbol viewBox="0 0 24 24" id="ico-eye-slash">

  <path id="eye-slash" fill="#000000" d="M21.229,13.868C19.913,16.063,16.961,19.75,12,19.75a9.343,9.343,0,0,1-2.826-.435.75.75,0,0,1,.453-1.43A7.856,7.856,0,0,0,12,18.25c4.222,0,6.79-3.23,7.944-5.156a2.105,2.105,0,0,0,0-2.186A13.488,13.488,0,0,0,18.721,9.18a.75.75,0,0,1,1.154-.959,15.163,15.163,0,0,1,1.358,1.916A3.6,3.6,0,0,1,21.229,13.868ZM10.063,15,3.53,21.53a.75.75,0,0,1-1.06-1.06L5.645,17.3a14.481,14.481,0,0,1-2.876-3.429,3.6,3.6,0,0,1,0-3.734C4.087,7.937,7.039,4.25,12,4.25a9.442,9.442,0,0,1,5.155,1.534L20.47,2.47a.75.75,0,0,1,1.06,1.06L10.065,15v0Zm-.454-1.667,3.722-3.723A2.705,2.705,0,0,0,12,9.25,2.752,2.752,0,0,0,9.251,12,2.705,2.705,0,0,0,9.609,13.331Zm-2.9,2.9,1.812-1.812A4.185,4.185,0,0,1,7.751,12,4.255,4.255,0,0,1,12,7.75a4.182,4.182,0,0,1,2.421.768l1.631-1.63A7.926,7.926,0,0,0,12,5.75c-4.222,0-6.79,3.23-7.944,5.156a2.105,2.105,0,0,0,0,2.186A12.847,12.847,0,0,0,6.707,16.233Zm8-3.8a2.746,2.746,0,0,1-2.272,2.274.75.75,0,1,0,.228,1.482,4.2,4.2,0,0,0,3.526-3.526.75.75,0,0,0-1.482-.23Z"></path>
</symbol><symbol viewBox="0 0 24 24" id="ico-filter">

  <path id="filter" fill="#000000" d="M14,21.75a.753.753,0,0,1-.45-.15l-4-3a.75.75,0,0,1-.3-.6V14a.747.747,0,0,0-.22-.531L3.909,8.348A2.235,2.235,0,0,1,3.25,6.757V4.5A2.253,2.253,0,0,1,5.5,2.25h13A2.253,2.253,0,0,1,20.75,4.5V6.757a2.235,2.235,0,0,1-.659,1.591L14.97,13.469a.747.747,0,0,0-.22.531v7a.75.75,0,0,1-.75.75Zm-3.25-4.125,2.5,1.875V14a2.235,2.235,0,0,1,.659-1.591L19.03,7.288a.745.745,0,0,0,.22-.531V4.5a.751.751,0,0,0-.75-.75H5.5a.751.751,0,0,0-.75.75V6.757a.745.745,0,0,0,.22.531l5.121,5.121A2.235,2.235,0,0,1,10.75,14Z"></path>
</symbol><symbol viewBox="0 0 24 24" id="ico-info-circle">

  <path id="info-circle" fill="#000000" d="M12,22.75A10.75,10.75,0,1,1,22.75,12,10.762,10.762,0,0,1,12,22.75Zm0-20A9.25,9.25,0,1,0,21.25,12,9.26,9.26,0,0,0,12,2.75Zm.75,13.75V11.929a.75.75,0,0,0-1.5,0V16.5a.75.75,0,0,0,1.5,0Zm.27-8a1,1,0,0,0-1-1h-.01a1,1,0,1,0,1.01,1Z"></path>
</symbol><symbol viewBox="0 0 24 24" id="ico-lightbulb">

  <path id="lightbulb" fill="#000000" d="M11.713,2.253A7.249,7.249,0,0,0,4.25,9.5a8.086,8.086,0,0,0,2.271,5.263A3.735,3.735,0,0,1,7.75,17.322V18A3.551,3.551,0,0,0,11.5,21.75,3.55,3.55,0,0,0,15.251,18v-.683A3.633,3.633,0,0,1,16.436,14.8a7.912,7.912,0,0,0,2.313-5.373A7.35,7.35,0,0,0,11.713,2.253Zm-.213,18A2.067,2.067,0,0,1,9.25,18v-.25h4.5V18A2.068,2.068,0,0,1,11.5,20.25Zm3.8-6.425a5.846,5.846,0,0,0-1.422,2.425H12.25V13.311l1.78-1.781a.75.75,0,0,0-1.06-1.06L11.5,11.939,10.03,10.47a.75.75,0,0,0-1.06,1.06l1.78,1.781V16.25H9.121a6.074,6.074,0,0,0-1.459-2.462A6.673,6.673,0,0,1,5.75,9.5,5.75,5.75,0,0,1,11.5,3.75l.171,0a5.836,5.836,0,0,1,5.579,5.7A6.567,6.567,0,0,1,15.3,13.825Z"></path>
</symbol><symbol viewBox="0 0 24 24" id="ico-log-out">

  <path id="log-out" fill="#000000" d="M15.75,17v1A3.383,3.383,0,0,1,12,21.75H6A3.383,3.383,0,0,1,2.25,18V6A3.383,3.383,0,0,1,6,2.25h6A3.383,3.383,0,0,1,15.75,6V7a.75.75,0,0,1-1.5,0V6c0-1.577-.673-2.25-2.25-2.25H6c-1.577,0-2.25.673-2.25,2.25V18c0,1.577.673,2.25,2.25,2.25h6c1.577,0,2.25-.673,2.25-2.25V17a.75.75,0,0,1,1.5,0Zm5.942-4.713a.751.751,0,0,0,0-.574.771.771,0,0,0-.162-.244l-3-3a.75.75,0,0,0-1.06,1.06l1.719,1.72H8a.75.75,0,0,0,0,1.5H19.189L17.47,14.47a.75.75,0,1,0,1.06,1.06l3-3A.771.771,0,0,0,21.692,12.287Z"></path>
</symbol><symbol viewBox="0 0 24 24" id="ico-menu-left-alt">

  <path id="menu-left-alt" fill="#000000" d="M16,6.75H3a.75.75,0,0,1,0-1.5H16a.75.75,0,0,1,0,1.5ZM21.75,12a.75.75,0,0,0-.75-.75H3a.75.75,0,0,0,0,1.5H21A.75.75,0,0,0,21.75,12Zm-9,6a.75.75,0,0,0-.75-.75H3a.75.75,0,0,0,0,1.5h9A.75.75,0,0,0,12.75,18Z"></path>
</symbol><symbol viewBox="0 0 24 24" id="ico-menu">

  <path id="menu" fill="#000000" d="M2.25,6A.75.75,0,0,1,3,5.25H21a.75.75,0,0,1,0,1.5H3A.75.75,0,0,1,2.25,6ZM21,11.25H3a.75.75,0,0,0,0,1.5H21a.75.75,0,0,0,0-1.5Zm0,6H3a.75.75,0,0,0,0,1.5H21a.75.75,0,0,0,0-1.5Z"></path>
</symbol><symbol viewBox="0 0 24 24" id="ico-more-horizontal-circle">

  <path id="more-horizontal-circle" fill="#000000" d="M12,22.75A10.75,10.75,0,1,1,22.75,12,10.762,10.762,0,0,1,12,22.75Zm0-20A9.25,9.25,0,1,0,21.25,12,9.26,9.26,0,0,0,12,2.75ZM9.27,12a1.25,1.25,0,0,0-1.25-1.25H8.01A1.25,1.25,0,1,0,9.27,12Zm4,0a1.25,1.25,0,0,0-1.25-1.25h-.01A1.25,1.25,0,1,0,13.27,12Zm4,0a1.25,1.25,0,0,0-1.25-1.25h-.01A1.25,1.25,0,1,0,17.27,12Z"></path>
</symbol><symbol viewBox="0 0 24 24" id="ico-more-horizontal">

  <path id="more-horizontal" fill="#000000" d="M4.02,13.5a1.5,1.5,0,0,1-.01-3h.01a1.5,1.5,0,0,1,0,3Zm8,0a1.5,1.5,0,0,1-.01-3h.01a1.5,1.5,0,0,1,0,3Zm8,0a1.5,1.5,0,0,1-.01-3h.01a1.5,1.5,0,0,1,0,3Z"></path>
</symbol><symbol viewBox="0 0 24 24" id="ico-rotate-right">

  <path id="rotate-right" fill="#000000" d="M21.75,4V9a.75.75,0,0,1-.75.75H16a.75.75,0,0,1,0-1.5h3.33a8.234,8.234,0,1,0,.058,7.417.75.75,0,1,1,1.343.666,9.753,9.753,0,1,1-.481-9.519V4a.75.75,0,0,1,1.5,0Z"></path>
</symbol><symbol viewBox="0 0 24 24" id="ico-search">

  <path id="search" fill="#000000" d="M21.53,20.47l-3.841-3.841a8.769,8.769,0,1,0-1.06,1.06L20.47,21.53a.75.75,0,0,0,1.06-1.06ZM3.75,11A7.25,7.25,0,1,1,11,18.25,7.258,7.258,0,0,1,3.75,11Z"></path>
</symbol><symbol viewBox="0 0 24 24" id="ico-sort-vertical">

  <path id="sort-vertical" fill="#000000" d="M16.53,13.47a.749.749,0,0,1,0,1.06l-4,4a.748.748,0,0,1-1.06,0l-4-4a.75.75,0,0,1,1.06-1.06L12,16.939l3.47-3.469A.749.749,0,0,1,16.53,13.47Zm-8-2.94L12,7.061l3.47,3.469a.75.75,0,0,0,1.06-1.06l-4-4a.749.749,0,0,0-1.06,0l-4,4a.75.75,0,0,0,1.06,1.06Z"></path>
</symbol><symbol viewBox="0 0 24 24" id="ico-stopwatch">

  <path id="stopwatch" fill="#000000" d="M17.6,7.963l.932-.933a.75.75,0,0,0-1.06-1.06l-.978.977A8.291,8.291,0,1,0,17.6,7.963ZM11.5,20.25a6.75,6.75,0,1,1,6.75-6.75A6.758,6.758,0,0,1,11.5,20.25Zm2.45-5.85a.75.75,0,1,1-.9,1.2l-2-1.5a.75.75,0,0,1-.3-.6V10a.75.75,0,0,1,1.5,0v3.125ZM8.25,3A.75.75,0,0,1,9,2.25h5a.75.75,0,0,1,0,1.5H9A.75.75,0,0,1,8.25,3Z"></path>
</symbol><symbol viewBox="0 0 24 24" id="ico-times">

  <path id="times" fill="#000000" d="M18.53,17.47a.75.75,0,1,1-1.06,1.06L12,13.061,6.53,18.53a.75.75,0,0,1-1.06-1.06L10.939,12,5.47,6.53A.75.75,0,0,1,6.53,5.47L12,10.939,17.47,5.47a.75.75,0,0,1,1.06,1.06L13.061,12Z"></path>
</symbol><symbol viewBox="0 0 24 24" id="ico-user-check-bottom">

  <path id="user-check-bottom" fill="#000000" d="M11.009,10.75a4.25,4.25,0,1,1,4.25-4.25A4.255,4.255,0,0,1,11.009,10.75Zm0-7a2.75,2.75,0,1,0,2.75,2.75A2.752,2.752,0,0,0,11.009,3.75ZM14.75,21a.75.75,0,0,0-.75-.75H7c-1.577,0-2.25-.667-2.25-2.23A3.959,3.959,0,0,1,9,13.75h4a3.89,3.89,0,0,1,3.529,1.655.75.75,0,1,0,1.262-.81A5.306,5.306,0,0,0,13,12.25H9c-4.244,0-5.75,3.108-5.75,5.77,0,2.405,1.332,3.73,3.75,3.73h7A.75.75,0,0,0,14.75,21Zm4.113.2L21.53,18.53a.75.75,0,0,0-1.06-1.06l-2.137,2.136-.8-.8a.75.75,0,0,0-1.06,1.061L17.8,21.2a.748.748,0,0,0,1.06,0Z"></path>
</symbol><symbol viewBox="0 0 24 24" id="ico-user">

  <path id="user" fill="#000000" d="M12.009,10.75a4.25,4.25,0,1,1,4.25-4.25A4.255,4.255,0,0,1,12.009,10.75Zm0-7a2.75,2.75,0,1,0,2.75,2.75A2.752,2.752,0,0,0,12.009,3.75ZM16,21.75H8c-2.42,0-3.753-1.325-3.753-3.731,0-2.662,1.506-5.769,5.75-5.769h4c4.244,0,5.75,3.107,5.75,5.769C19.75,20.425,18.417,21.75,16,21.75Zm-6-8a3.958,3.958,0,0,0-4.25,4.269c0,1.564.674,2.231,2.253,2.231H16c1.579,0,2.253-.667,2.253-2.231A3.958,3.958,0,0,0,14,13.75Z"></path>
</symbol></svg>